<?xml version="1.0" encoding="utf-8"?>
<!-- Generator: Adobe Illustrator 16.0.4, SVG Export Plug-In . SVG Version: 6.00 Build 0)  -->
<!DOCTYPE svg PUBLIC "-//W3C//DTD SVG 1.1//EN" "http://www.w3.org/Graphics/SVG/1.1/DTD/svg11.dtd">
<svg version="1.1"
	 id="svg2" xmlns:inkscape="http://www.inkscape.org/namespaces/inkscape" xmlns:sodipodi="http://sodipodi.sourceforge.net/DTD/sodipodi-0.dtd" xmlns:cc="http://creativecommons.org/ns#" xmlns:rdf="http://www.w3.org/1999/02/22-rdf-syntax-ns#" xmlns:svg="http://www.w3.org/2000/svg" xmlns:dc="http://purl.org/dc/elements/1.1/" sodipodi:docname="CPU.svg" inkscape:version="0.48.4 r9939"
	 xmlns="http://www.w3.org/2000/svg" xmlns:xlink="http://www.w3.org/1999/xlink" x="0px" y="0px" width="100px" height="100px"
	 viewBox="0 0 100 100" enable-background="new 0 0 100 100" xml:space="preserve">
<sodipodi:namedview  inkscape:pageshadow="2" inkscape:window-height="634" inkscape:window-width="893" inkscape:pageopacity="0.0" inkscape:window-y="125" inkscape:document-units="px" inkscape:window-maximized="0" inkscape:window-x="125" inkscape:current-layer="layer1" bordercolor="#666666" inkscape:zoom="1.979899" inkscape:cy="59.521126" borderopacity="1.0" inkscape:cx="57.609378" showgrid="false" id="base" pagecolor="#ffffff">
	</sodipodi:namedview>
<g id="layer1" transform="translate(0,-952.36218)" inkscape:groupmode="layer" inkscape:label="Layer 1">
	<path id="path3013" inkscape:connector-curvature="0" fill="#5CC3E7" d="M26.905,979.259v46.207h46.189v-46.207L26.905,979.259
		L26.905,979.259z"/>
	<path id="path3015" inkscape:connector-curvature="0" fill="#5CC3E7" d="M26.905,957.37v15.391h6.596V957.37H26.905z"/>
	<path id="path3017" inkscape:connector-curvature="0" fill="#5CC3E7" d="M40.098,957.37v15.391h6.612V957.37H40.098z"/>
	<path id="path3019" inkscape:connector-curvature="0" fill="#5CC3E7" d="M53.307,957.37v15.391h6.596V957.37H53.307z"/>
	<path id="path3021" inkscape:connector-curvature="0" fill="#5CC3E7" d="M66.498,957.37v15.391h6.598V957.37H66.498z"/>
	<path id="path3023" inkscape:connector-curvature="0" fill="#5CC3E7" d="M26.905,1031.963v15.392h6.596v-15.392H26.905z"/>
	<path id="path3025" inkscape:connector-curvature="0" fill="#5CC3E7" d="M40.098,1031.963v15.392h6.612v-15.392H40.098z"/>
	<path id="path3027" inkscape:connector-curvature="0" fill="#5CC3E7" d="M53.307,1031.963v15.392h6.596v-15.392H53.307z"/>
	<path id="path3029" inkscape:connector-curvature="0" fill="#5CC3E7" d="M66.498,1031.963v15.392h6.598v-15.392H66.498z"/>
	<path id="path3031" inkscape:connector-curvature="0" fill="#5CC3E7" d="M5,1025.466v-6.597h15.407v6.597H5z"/>
	<path id="path3033" inkscape:connector-curvature="0" fill="#5CC3E7" d="M5,1012.257v-6.597h15.407v6.597H5z"/>
	<path id="path3035" inkscape:connector-curvature="0" fill="#5CC3E7" d="M5,999.064v-6.597h15.407v6.597H5z"/>
	<path id="path3037" inkscape:connector-curvature="0" fill="#5CC3E7" d="M5,985.872v-6.613h15.407v6.613H5z"/>
	<path id="path3039" inkscape:connector-curvature="0" fill="#5CC3E7" d="M79.609,1025.466v-6.597H95v6.597H79.609z"/>
	<path id="path3041" inkscape:connector-curvature="0" fill="#5CC3E7" d="M79.609,1012.257v-6.597H95v6.597H79.609z"/>
	<path id="path3043" inkscape:connector-curvature="0" fill="#5CC3E7" d="M79.609,999.064v-6.597H95v6.597H79.609z"/>
	<path id="path3045" inkscape:connector-curvature="0" fill="#5CC3E7" d="M79.609,985.872v-6.613H95v6.613H79.609z"/>
</g>
</svg>
