<?xml version="1.0" encoding="utf-8"?>
<!-- Generator: Adobe Illustrator 16.0.4, SVG Export Plug-In . SVG Version: 6.00 Build 0)  -->
<!DOCTYPE svg PUBLIC "-//W3C//DTD SVG 1.1//EN" "http://www.w3.org/Graphics/SVG/1.1/DTD/svg11.dtd">
<svg version="1.1" id="Layer_1" xmlns="http://www.w3.org/2000/svg" xmlns:xlink="http://www.w3.org/1999/xlink" x="0px" y="0px"
	 width="512px" height="512px" viewBox="0 0 512 512" enable-background="new 0 0 512 512" xml:space="preserve">
<circle fill="#5DC3E7" cx="256" cy="256" r="233.613"/>
<polygon fill="#FFFFFF" points="390.914,309.09 390.914,314.117 395.215,314.117 395.215,316.918 390.914,316.918 388.785,316.918 
	384.477,316.918 384.477,314.117 388.785,314.117 388.785,309.09 354.76,309.09 354.76,314.117 359.062,314.117 359.062,316.918 
	354.76,316.918 352.629,316.918 348.326,316.918 348.326,314.117 352.629,314.117 352.629,309.09 318.604,309.09 318.604,314.117 
	322.906,314.117 322.906,316.918 318.604,316.918 316.477,316.918 312.174,316.918 312.174,314.117 316.477,314.117 316.477,309.09 
	282.451,309.09 282.451,314.117 286.752,314.117 286.752,316.918 282.451,316.918 280.318,316.918 276.016,316.918 276.016,314.117 
	280.318,314.117 280.318,309.09 246.299,309.09 246.299,314.117 250.602,314.117 250.602,316.918 246.299,316.918 244.164,316.918 
	239.861,316.918 239.861,314.117 244.164,314.117 244.164,309.09 210.145,309.09 210.145,314.117 214.443,314.117 214.443,316.918 
	210.145,316.918 208.014,316.918 203.713,316.918 203.713,314.117 208.014,314.117 208.014,309.09 173.992,309.09 173.992,314.117 
	178.293,314.117 178.293,316.918 173.992,316.918 171.855,316.918 167.553,316.918 167.553,314.117 171.855,314.117 171.855,309.09 
	137.832,309.09 137.832,314.117 142.135,314.117 142.135,316.918 137.832,316.918 135.707,316.918 131.404,316.918 131.404,314.117 
	135.707,314.117 135.707,309.09 118.039,309.09 118.039,326.164 408.576,326.164 408.576,309.09 "/>
<path fill="#FFFFFF" d="M420.911,340.636V179.535h-6.088h-1.219H291.698v-3.379h37.691c11.381,0,20.637-10.008,20.637-22.324
	c0-12.305-9.256-22.32-20.637-22.32h-37.691v-27.09h-43.854v57.734H105.706v-11.281H81.95v66.223h23.756v93.894H84.995v29.656
	h-7.916v5.93h28.627h7.309h5.023v8.898v8.887h14.164v19.773h-11.99v2.594h11.99h8.223h11.992v-2.594h-11.992v-19.773h14.162v-8.887
	h217.447v8.887h14.16v19.773H374.2v2.594h11.994h8.221h11.994v-2.594h-11.994v-19.773h14.16v-8.887v-8.898h5.029h7.314h14.002v-5.93
	h-14.01V340.636z M291.698,145.527h37.691c4.236,0,7.691,3.727,7.691,8.312s-3.447,8.316-7.691,8.316h-37.691V145.527z
	 M105.706,176.16h142.143v3.379H113.015h-3.354h-3.955V176.16z M408.575,340.636v-20.75h-36.541H154.587h-36.543v20.75h-5.025
	v-116.62h134.83v5.93h16.449v11.406h-7.543v11.852h26.037v-11.852h-7.541v-11.406h16.447v-5.93h121.898v116.632h-5.021V340.636z"/>
</svg>
