<?xml version="1.0" encoding="utf-8"?>
<!-- Generator: Adobe Illustrator 16.0.4, SVG Export Plug-In . SVG Version: 6.00 Build 0)  -->
<!DOCTYPE svg PUBLIC "-//W3C//DTD SVG 1.1//EN" "http://www.w3.org/Graphics/SVG/1.1/DTD/svg11.dtd">
<svg version="1.1" id="Layer_1" xmlns="http://www.w3.org/2000/svg" xmlns:xlink="http://www.w3.org/1999/xlink" x="0px" y="0px"
	 width="512px" height="512px" viewBox="0 0 512 512" enable-background="new 0 0 512 512" xml:space="preserve">
<circle fill="#5DC3E7" cx="256" cy="256" r="233.613"/>
<g id="Layer_2">
	<path fill="#FFFFFF" d="M381.719,386.918c-4.242,0-7.703-3.035-7.703-6.773s3.461-6.781,7.703-6.781s7.695,3.043,7.695,6.781
		S385.973,386.918,381.719,386.918z M381.719,375.467c-2.93,0-5.312,2.098-5.312,4.678c0,2.576,2.383,4.676,5.312,4.676
		c2.934,0,5.309-2.1,5.309-4.676C387.043,377.564,384.652,375.467,381.719,375.467z"/>
	<path fill="#FFFFFF" d="M130.84,384.438c0,1.936-1.785,3.508-3.988,3.508l0,0c-2.199,0-3.984-1.572-3.984-3.508v-9.113
		c0-1.939,1.785-3.506,3.984-3.506l0,0c2.203,0,3.988,1.566,3.988,3.506V384.438z"/>
	<path fill="#FFFFFF" d="M142,384.438c0,1.936-1.785,3.508-3.98,3.508l0,0c-2.203,0-3.984-1.572-3.984-3.508v-9.113
		c0-1.939,1.781-3.506,3.984-3.506l0,0c2.199,0,3.98,1.566,3.98,3.506V384.438z"/>
	<path fill="#FFFFFF" d="M406.801,362.643c-1.719,0-3.121-0.303-3.121,3.057v27.836c0,3.359,1.402,2.775,3.121,2.775
		c1.723,0,3.125,0.584,3.125-2.775v-27.836C409.926,362.34,408.523,362.643,406.801,362.643z"/>
	<path fill="#FFFFFF" d="M105.191,362.643c-1.727,0-3.117-0.303-3.117,3.057v27.836c0,3.359,1.398,2.775,3.117,2.775
		c1.723,0,3.125,0.584,3.125-2.775v-27.836C108.316,362.34,106.918,362.643,105.191,362.643z"/>
	<path fill="#FFFFFF" d="M406.258,118.639c-1.727,0-3.121-0.307-3.121,3.055v1.602c0-8.643-7.461-8.643-11.039-8.643H378.98
		c-2.715,0-7.688,0.025-9.898,3.848H143.406c-2.238-3.818-7.25-3.848-10.012-3.848h-13.285c-3.371,0-10.059,0.094-10.973,7.07
		v-0.029c0-3.361-1.484-3.055-3.32-3.055c-1.832,0-3.316-0.307-3.316,3.055v27.836c0,3.361,1.484,2.77,3.316,2.77
		c1.766,0,3.199,0.516,3.297-2.463c0.801,5.969,5.852,6.867,9.406,6.984v205.17c-5.633,0.494-10.066,4.635-10.066,9.721v16.338
		c0,5.412,5.008,9.816,11.164,9.816h272.762c6.152,0,11.164-4.404,11.164-9.816v-16.338c0-5.092-4.43-9.229-10.07-9.729v-205.16
		c3.824-0.098,9.664-0.973,9.664-8.617v1.324c0,3.361,1.395,2.77,3.121,2.77c1.723,0,3.125,0.592,3.125-2.77v-27.836
		C409.383,118.332,407.98,118.639,406.258,118.639z M368.094,122.006c-0.047,0.436-0.148,0.805-0.148,1.293v3.414
		c-0.199-0.049-0.402-0.104-0.617-0.104h-222.16c-0.219,0-0.414,0.055-0.613,0.104v-3.418c0-0.488-0.102-0.854-0.148-1.291
		L368.094,122.006L368.094,122.006z M203.043,132.104c4.398,0,7.973,3.725,7.973,8.307v14.574c0,4.582-3.574,8.312-7.973,8.312
		h-14.344c-4.398,0-7.969-3.73-7.969-8.312V140.41c0-4.582,3.574-8.307,7.969-8.307H203.043z M144.555,148.205v-17.922
		c0.203,0.051,0.398,0.105,0.613,0.105h38.793c-3.781,1.781-6.418,5.59-6.418,10.021v8.412h-18.68c-1.09,0-1.973,1.061-1.973,2.367
		s0.883,2.367,1.973,2.367h18.68v1.428c0,6.131,5.004,11.113,11.156,11.113h5.184v7.766h3.984v-7.766h5.18
		c6.156,0,11.164-4.986,11.164-11.113v-1.428h142.762c1.086,0,1.969-1.061,1.969-2.367s-0.883-2.367-1.969-2.367H214.211v-8.412
		c0-4.432-2.641-8.24-6.422-10.021h159.543c0.219,0,0.422-0.055,0.617-0.105v17.922c0,8.637,7.457,8.637,11.031,8.637h10.516
		v205.053h-22.445v-72.373h13.145c2.555,0,2.27-3.193,2.27-7.127s0.285-7.127-2.27-7.127h-13.145v-5.85h13.809
		c0.887,0,1.605-0.627,1.605-1.404c0-0.77-0.719-1.404-1.605-1.404h-13.809V166.121c0-2.383-1.727-4.32-3.855-4.32
		c-2.137,0-3.863,1.934-3.863,4.32v100.488H156.891V166.121c0-2.383-1.73-4.32-3.855-4.32s-3.852,1.934-3.852,4.32v100.488h-15.406
		c-0.879,0-1.598,0.635-1.598,1.404c0,0.777,0.711,1.408,1.598,1.408h15.406v5.85h-14.488c-2.555,0-2.516,3.193-2.516,7.127
		s-0.035,7.127,2.516,7.127h14.488v72.369h-26.68V156.838h10.887C137.016,156.838,144.555,156.838,144.555,148.205z
		 M156.891,275.268v-5.85H359.34v5.85H156.891z M359.34,289.521v72.369H156.891v-72.369H359.34z M112.137,148.205v-24.91
		c0-4.965,2.574-5.842,7.969-5.842h13.285c5.402,0,7.973,0.877,7.973,5.842v24.906c0,4.959-2.57,5.832-7.973,5.832h-13.285
		C114.711,154.037,112.137,153.16,112.137,148.205z M400.352,371.711v16.334c0,3.869-3.574,7.012-7.973,7.012H119.617
		c-4.395,0-7.973-3.143-7.973-7.012v-16.334c0-3.877,3.578-7.014,7.973-7.014h272.762
		C396.77,364.697,400.352,367.844,400.352,371.711z M399.945,148.205c0,4.959-2.527,5.832-7.848,5.832H378.98
		c-5.316,0-7.855-0.873-7.855-5.832v-24.91c0-4.965,2.527-5.842,7.855-5.842h13.117c5.32,0,7.848,0.877,7.848,5.842V148.205z"/>
	<path fill="#FFFFFF" d="M239.484,219.078l-1.68-28.512l19.281-12.537l25.707,4.676l5.023,20.398l-5.023,11.801l2.242,14.008
		l18.992,2.219l12.301,22.121l-6.703,15.402l-79.867-0.291l-10.672-17.57l4.469-15.732l15.926-3.441l9.5-8.275 M257.547,188.596
		l6.293,3.443l6,12.535l8.105,3.934l5.301-8.109l-5.586-13.645l-19.57-4.551l-13.688,9.094L257.547,188.596z M267.719,236.533
		l15.527,6.148l21.242,12.535l7.82-2.949l-10.055-17.449l-16.504-1.477L267.719,236.533z"/>
</g>
</svg>
