<?xml version="1.0" encoding="utf-8"?>
<!-- Generator: Adobe Illustrator 16.0.4, SVG Export Plug-In . SVG Version: 6.00 Build 0)  -->
<!DOCTYPE svg PUBLIC "-//W3C//DTD SVG 1.1//EN" "http://www.w3.org/Graphics/SVG/1.1/DTD/svg11.dtd">
<svg version="1.1" id="Layer_1" xmlns="http://www.w3.org/2000/svg" xmlns:xlink="http://www.w3.org/1999/xlink" x="0px" y="0px"
	 width="90px" height="90px" viewBox="0 0 90 90" enable-background="new 0 0 90 90" xml:space="preserve">
<g id="Layer_1_1_" display="none">
	<path display="inline" d="M70.828,2.784H68.69c-0.522,0-0.983,0.06-1.262,0.382c-0.173,0.201-0.276,0.502-0.276,0.958v4.611
		c0,1.188,0.689,1.339,1.538,1.339h2.038h0.1c0.85,0,1.537-0.151,1.537-1.339V4.125C72.365,2.937,71.678,2.784,70.828,2.784z"/>
	<polygon display="inline" points="35.496,14.294 35.496,14.294 35.496,14.294 35.496,14.294 35.496,12.365 35.496,12.365 
		35.496,12.365 35.496,12.365 	"/>
	<g display="inline">
		<path d="M73.869,59.138c0,0.683-0.252,0.564-0.562,0.564l0,0c-0.309,0-0.559,0.118-0.559-0.564v-5.673
			c0-0.686,0.25-0.623,0.559-0.623l0,0c0.31,0,0.562-0.062,0.562,0.623V59.138z"/>
		<path d="M19.799,59.138c0,0.683-0.25,0.564-0.559,0.564l0,0c-0.309,0-0.56,0.118-0.56-0.564v-5.673c0-0.686,0.25-0.623,0.56-0.623
			l0,0c0.309,0,0.559-0.062,0.559,0.623V59.138z"/>
	</g>
	<path display="inline" d="M73.792,9.415c0,0.684-0.25,0.563-0.559,0.563l0,0c-0.31,0-0.562,0.122-0.562-0.563V3.742
		c0-0.684,0.252-0.622,0.562-0.622l0,0c0.309,0,0.559-0.062,0.559,0.622V9.415z"/>
	<path display="inline" d="M18.757,9.415c0,0.684,0.267,0.563,0.595,0.563l0,0c0.329,0,0.595,0.122,0.595-0.563V3.742
		c0-0.684-0.266-0.622-0.595-0.622l0,0c-0.328,0-0.595-0.062-0.595,0.622V9.415z"/>
	<path display="inline" d="M72.438,57.939c0,0.945-0.769,1.715-1.714,1.715H21.826c-0.947,0-1.714-0.77-1.714-1.715v-3.328
		c0-0.947,0.768-1.715,1.714-1.715h48.898c0.945,0,1.714,0.768,1.714,1.715V57.939z M68.811,55.162
		c-0.643,0-1.164,0.521-1.164,1.164c0,0.646,0.521,1.17,1.164,1.17c0.646,0,1.166-0.523,1.166-1.17
		C69.979,55.684,69.456,55.162,68.811,55.162z M23.837,55.346c0-0.395-0.319-0.715-0.714-0.715l0,0c-0.395,0-0.714,0.32-0.714,0.715
		v1.856c0,0.396,0.319,0.715,0.714,0.715l0,0c0.395,0,0.714-0.319,0.714-0.715V55.346z M25.839,55.346
		c0-0.395-0.322-0.715-0.715-0.715l0,0c-0.396,0-0.716,0.32-0.716,0.715v1.856c0,0.396,0.32,0.715,0.716,0.715l0,0
		c0.393,0,0.715-0.319,0.715-0.715V55.346z"/>
	<path display="inline" d="M23.976,2.695h-2.137c-0.522,0-0.983,0.06-1.261,0.382C20.404,3.278,20.3,3.58,20.3,4.036v4.611
		c0,1.188,0.69,1.339,1.539,1.339h2.038h0.099c0.85,0,1.539-0.151,1.539-1.339V4.036C25.514,2.848,24.825,2.695,23.976,2.695z"/>
	<rect x="28.507" y="33.382" display="inline" width="36.291" height="1.192"/>
	<path display="inline" d="M26.406,4.665h39.829c0.217,0,0.393,0.172,0.393,0.386V3.991c0-0.502,0.113-0.834,0.305-1.055H25.702
		c0.193,0.221,0.308,0.553,0.308,1.055V5.05C26.01,4.837,26.188,4.665,26.406,4.665z"/>
	<path display="inline" d="M68.32,10.539c-0.935,0-1.693-0.167-1.693-1.474V5.05c0,0.213-0.176,0.386-0.393,0.386H38.065
		c0.266,0.349,0.432,0.801,0.432,1.302v2.369h25.88c0.194,0,0.354,0.156,0.354,0.348s-0.159,0.348-0.354,0.348H38.489
		c-0.044,1.048-0.789,1.883-1.708,1.883h-1.078v1.136h-0.524v-1.136h-0.97c-0.917,0-1.662-0.835-1.707-1.883h-3.642
		c-0.195,0-0.354-0.156-0.354-0.348s0.159-0.348,0.354-0.348h3.634V6.737c0-0.501,0.167-0.953,0.432-1.302h-6.521
		c-0.218,0-0.396-0.172-0.396-0.386v4.016c0,1.308-0.768,1.474-1.714,1.474h-2.31V52.25h5.14V37.478H24.53
		c-0.458,0-0.452-0.649-0.452-1.452c0-0.803-0.006-1.452,0.452-1.452h2.596v-1.192h-2.762c-0.157,0-0.285-0.127-0.285-0.286
		c0-0.158,0.128-0.287,0.285-0.287h2.762V12.719c0-0.486,0.309-0.881,0.69-0.881c0.382,0,0.691,0.395,0.691,0.881v20.092h36.291
		V12.719c0-0.486,0.313-0.881,0.692-0.881c0.383,0,0.691,0.395,0.691,0.881v20.092h2.479c0.159,0,0.287,0.128,0.287,0.287
		c0,0.158-0.128,0.286-0.287,0.286h-2.479v1.192h2.359c0.456,0,0.406,0.649,0.406,1.452c0,0.802,0.05,1.452-0.406,1.452h-2.359
		V52.25h4.382V10.539H68.32z"/>
	<rect x="28.507" y="37.478" display="inline" width="36.291" height="14.772"/>
</g>
<g id="Layer_2">
	<path fill="#5DC3E7" d="M68.621,57.718c-0.759,0-1.377-0.617-1.377-1.376c0-0.758,0.618-1.376,1.377-1.376
		c0.758,0,1.375,0.618,1.375,1.376C69.996,57.101,69.38,57.718,68.621,57.718z M68.621,55.393c-0.523,0-0.95,0.426-0.95,0.949
		s0.427,0.949,0.95,0.949c0.522,0,0.949-0.426,0.949-0.949S69.145,55.393,68.621,55.393z"/>
	<path fill="#5DC3E7" d="M23.814,57.213c0,0.394-0.319,0.713-0.712,0.713l0,0c-0.393,0-0.712-0.319-0.712-0.713v-1.85
		c0-0.393,0.319-0.712,0.712-0.712l0,0c0.393,0,0.712,0.319,0.712,0.712V57.213z"/>
	<path fill="#5DC3E7" d="M25.808,57.213c0,0.394-0.319,0.713-0.711,0.713l0,0c-0.393,0-0.712-0.319-0.712-0.713v-1.85
		c0-0.393,0.319-0.712,0.712-0.712l0,0c0.393,0,0.711,0.319,0.711,0.712V57.213z"/>
	<path fill="#5DC3E7" d="M73.1,52.789c-0.307,0-0.557-0.062-0.557,0.621v5.65c0,0.683,0.25,0.562,0.557,0.562
		c0.309,0,0.559,0.12,0.559-0.562v-5.65C73.658,52.728,73.408,52.789,73.1,52.789z"/>
	<path fill="#5DC3E7" d="M19.233,52.789c-0.308,0-0.557-0.062-0.557,0.621v5.65c0,0.683,0.25,0.562,0.557,0.562
		c0.307,0,0.558,0.12,0.558-0.562v-5.65C19.791,52.728,19.542,52.789,19.233,52.789z"/>
	<path fill="#5DC3E7" d="M73.003,3.253c-0.308,0-0.558-0.062-0.558,0.62v0.325c0-1.755-1.332-1.755-1.971-1.755h-2.344
		c-0.486,0-1.373,0.005-1.768,0.781H26.059c-0.4-0.775-1.295-0.781-1.788-0.781h-2.373c-0.603,0-1.796,0.019-1.96,1.436V3.874
		c0-0.683-0.266-0.62-0.593-0.62c-0.328,0-0.593-0.062-0.593,0.62v5.651c0,0.682,0.265,0.562,0.593,0.562
		c0.315,0,0.571,0.104,0.589-0.5c0.143,1.211,1.044,1.394,1.679,1.417v41.652c-1.006,0.101-1.797,0.942-1.797,1.975v3.316
		c0,1.098,0.894,1.992,1.993,1.992h48.715c1.099,0,1.993-0.895,1.993-1.992V54.63c0-1.032-0.791-1.874-1.797-1.974V11.005
		c0.682-0.02,1.725-0.198,1.725-1.75v0.269c0,0.682,0.25,0.562,0.558,0.562s0.558,0.12,0.558-0.562V3.874
		C73.561,3.191,73.311,3.253,73.003,3.253z M66.187,3.937C66.178,4.025,66.16,4.1,66.16,4.199v0.693
		c-0.035-0.01-0.071-0.021-0.109-0.021H26.374c-0.04,0-0.075,0.011-0.11,0.021V4.199c0-0.1-0.019-0.173-0.027-0.262L66.187,3.937
		L66.187,3.937z M36.709,5.987c0.785,0,1.424,0.756,1.424,1.687v2.958c0,0.931-0.639,1.688-1.424,1.688h-2.562
		c-0.785,0-1.423-0.757-1.423-1.688V7.673c0-0.93,0.638-1.687,1.423-1.687H36.709z M26.264,9.255V5.617
		c0.036,0.01,0.071,0.021,0.11,0.021h6.928C32.626,6,32.155,6.773,32.155,7.673v1.708h-3.336c-0.194,0-0.352,0.215-0.352,0.48
		c0,0.266,0.158,0.481,0.352,0.481h3.336v0.29c0,1.245,0.894,2.256,1.993,2.256h0.926v1.576h0.712v-1.576h0.925
		c1.099,0,1.993-1.013,1.993-2.256v-0.29H64.2c0.194,0,0.353-0.215,0.353-0.481c0-0.265-0.158-0.48-0.353-0.48H38.704V7.673
		c0-0.9-0.472-1.673-1.146-2.035h28.494c0.039,0,0.075-0.011,0.109-0.021v3.638c0,1.753,1.332,1.753,1.972,1.753h1.877v41.628
		h-4.008V37.944h2.347c0.457,0,0.406-0.648,0.406-1.446c0-0.799,0.051-1.447-0.406-1.447h-2.347v-1.188h2.466
		c0.158,0,0.287-0.127,0.287-0.284c0-0.157-0.129-0.285-0.287-0.285h-2.466v-20.4c0-0.484-0.309-0.877-0.688-0.877
		c-0.381,0-0.689,0.393-0.689,0.877v20.4H28.467v-20.4c0-0.484-0.309-0.877-0.688-0.877c-0.38,0-0.688,0.393-0.688,0.877v20.4
		h-2.752c-0.157,0-0.285,0.128-0.285,0.285c0,0.157,0.127,0.284,0.285,0.284h2.752v1.188h-2.587c-0.457,0-0.45,0.648-0.45,1.447
		c0,0.798-0.006,1.446,0.45,1.446h2.587v14.692h-4.765V11.008h1.944C24.917,11.008,26.264,11.008,26.264,9.255z M28.467,35.051
		v-1.188h36.156v1.188H28.467z M64.623,37.944v14.692H28.467V37.944H64.623z M20.474,9.255V4.199c0-1.008,0.459-1.186,1.423-1.186
		h2.373c0.964,0,1.424,0.178,1.424,1.186v5.056c0,1.007-0.459,1.184-1.424,1.184h-2.373C20.933,10.439,20.474,10.262,20.474,9.255z
		 M71.948,54.63v3.315c0,0.785-0.639,1.424-1.424,1.424H21.81c-0.785,0-1.424-0.639-1.424-1.424V54.63
		c0-0.785,0.639-1.424,1.424-1.424h48.715C71.309,53.207,71.948,53.846,71.948,54.63z M71.875,9.255c0,1.007-0.451,1.184-1.4,1.184
		h-2.344c-0.949,0-1.401-0.177-1.401-1.184V4.199c0-1.008,0.451-1.186,1.401-1.186h2.344c0.949,0,1.4,0.178,1.4,1.186V9.255z"/>
	<path fill="#5DC3E7" d="M43.218,23.644l-0.3-5.788l3.443-2.545l4.592,0.949l0.896,4.142l-0.896,2.396l0.399,2.844l3.392,0.45
		l2.197,4.491l-1.197,3.126l-14.263-0.059l-1.907-3.567l0.798-3.194l2.844-0.699l1.696-1.68 M46.443,17.456l1.123,0.699l1.072,2.545
		l1.447,0.799l0.947-1.647l-0.998-2.77l-3.493-0.924l-2.445,1.846L46.443,17.456z M48.26,27.188l2.773,1.248l3.795,2.544
		l1.396-0.599l-1.796-3.542l-2.945-0.3L48.26,27.188z"/>
</g>
</svg>
