<?xml version="1.0" encoding="utf-8"?>
<!-- Generator: Adobe Illustrator 16.0.4, SVG Export Plug-In . SVG Version: 6.00 Build 0)  -->
<!DOCTYPE svg PUBLIC "-//W3C//DTD SVG 1.1//EN" "http://www.w3.org/Graphics/SVG/1.1/DTD/svg11.dtd">
<svg version="1.1" id="Layer_1" xmlns="http://www.w3.org/2000/svg" xmlns:xlink="http://www.w3.org/1999/xlink" x="0px" y="0px"
	 width="5.569px" height="4.913px" viewBox="1.716 2.043 5.569 4.913" enable-background="new 1.716 2.043 5.569 4.913"
	 xml:space="preserve">
<path fill="#FFFFFF" d="M5.812,6.956H5.811H3.189c-0.09,0-0.164-0.074-0.164-0.163c0-0.453,0.367-0.818,0.819-0.818h0.164V5.251
	C3.646,5.148,3.327,4.937,3.091,4.64C3.017,4.655,2.939,4.663,2.862,4.663c-0.632,0-1.146-0.514-1.146-1.147V2.862
	c0-0.091,0.073-0.164,0.164-0.164h0.819V2.207c0-0.091,0.073-0.164,0.164-0.164h3.276c0.09,0,0.163,0.073,0.163,0.164v0.491H7.12
	c0.092,0,0.165,0.073,0.165,0.164v0.654c0,0.633-0.516,1.147-1.146,1.147c-0.078,0-0.154-0.008-0.229-0.023
	C5.672,4.937,5.354,5.148,4.991,5.251v0.724h0.163c0.438,0,0.799,0.348,0.818,0.781C5.975,6.768,5.977,6.78,5.977,6.793
	C5.977,6.882,5.904,6.956,5.812,6.956z M3.381,6.628h2.236C5.55,6.438,5.369,6.301,5.154,6.301H4.827
	c-0.09,0-0.163-0.072-0.163-0.164V5.122c0-0.078,0.055-0.146,0.131-0.161C5.166,4.886,5.49,4.672,5.709,4.36
	C5.75,4.301,5.824,4.276,5.893,4.298c0.078,0.024,0.16,0.037,0.246,0.037c0.45,0,0.818-0.367,0.818-0.819V3.025H6.139
	c-0.092,0-0.166-0.074-0.166-0.164V2.37H3.026v0.492c0,0.09-0.074,0.164-0.164,0.164H2.043v0.491c0,0.452,0.367,0.819,0.819,0.819
	c0.084,0,0.167-0.013,0.246-0.037C3.175,4.276,3.25,4.301,3.291,4.36C3.51,4.672,3.834,4.885,4.205,4.961
	c0.077,0.016,0.131,0.083,0.131,0.161v1.015c0,0.092-0.073,0.164-0.164,0.164H3.845C3.631,6.301,3.449,6.438,3.381,6.628z
	 M2.838,3.998c-0.233,0-0.424-0.192-0.424-0.429V3.332h0.424v0.237c0,0.149,0.027,0.292,0.077,0.422
	C2.89,3.997,2.864,3.998,2.838,3.998 M6.163,3.998c-0.026,0-0.054-0.001-0.077-0.007C6.137,3.86,6.163,3.718,6.163,3.569V3.332
	h0.423v0.237C6.586,3.806,6.396,3.998,6.163,3.998"/>
</svg>
