<?xml version="1.0" encoding="utf-8"?>
<!-- Generator: Adobe Illustrator 16.0.4, SVG Export Plug-In . SVG Version: 6.00 Build 0)  -->
<!DOCTYPE svg PUBLIC "-//W3C//DTD SVG 1.1//EN" "http://www.w3.org/Graphics/SVG/1.1/DTD/svg11.dtd">
<svg version="1.1" id="Layer_1" xmlns="http://www.w3.org/2000/svg" xmlns:xlink="http://www.w3.org/1999/xlink" x="0px" y="0px"
	 width="96px" height="96px" viewBox="0 0 96 96" enable-background="new 0 0 96 96" xml:space="preserve">
<path fill="#FFFFFF" d="M82,96H14C6.28,96,0,89.149,0,80.727v-4.363c0-8.421,6.28-15.271,14-15.271h68c7.721,0,14,6.851,14,15.271
	v4.363C96,89.149,89.721,96,82,96z M14,65.455c-5.512,0-10,4.896-10,10.908v4.363c0,6.014,4.488,10.91,10,10.91h68
	c5.512,0,10-4.896,10-10.91v-4.363c0-6.012-4.488-10.908-10-10.908H14z"/>
<path fill="#FFFFFF" d="M79,85.092c-3.309,0-6-2.938-6-6.547S75.691,72,79,72s6,2.936,6,6.545S82.309,85.092,79,85.092z M79,76.363
	c-1.1,0-2,0.982-2,2.182s0.9,2.182,2,2.182s2-0.982,2-2.182S80.1,76.363,79,76.363z"/>
<path fill="#FFFFFF" d="M3.656,71.938c-0.088,0-0.176-0.008-0.268-0.016c-1.092-0.161-1.86-1.262-1.716-2.457l6.78-54.908
	C9.476,6.257,16.036,0,23.712,0h48.544c7.696,0,14.256,6.274,15.264,14.592l6.629,54.586c0.144,1.189-0.625,2.289-1.725,2.451
	c-1.092,0.153-2.096-0.685-2.244-1.881l-6.615-54.584C82.812,9.007,77.96,4.359,72.26,4.359H23.712
	c-5.68,0-10.536,4.634-11.296,10.773L5.636,70.04C5.5,71.15,4.644,71.938,3.656,71.938L3.656,71.938z"/>
</svg>
