<?xml version="1.0" encoding="utf-8"?>
<!-- Generator: Adobe Illustrator 16.0.4, SVG Export Plug-In . SVG Version: 6.00 Build 0)  -->
<!DOCTYPE svg PUBLIC "-//W3C//DTD SVG 1.1//EN" "http://www.w3.org/Graphics/SVG/1.1/DTD/svg11.dtd">
<svg version="1.1" id="Layer_1" xmlns="http://www.w3.org/2000/svg" xmlns:xlink="http://www.w3.org/1999/xlink" x="0px" y="0px"
	 width="65.691px" height="78.625px" viewBox="0 0 65.691 78.625" enable-background="new 0 0 65.691 78.625" xml:space="preserve">
<path fill="#FFFFFF" d="M60.527,0H5.166C2.319,0,0,2.024,0,4.513v69.599c0,2.488,2.317,4.513,5.166,4.513h55.36
	c2.851,0,5.166-2.022,5.166-4.513V4.513C65.693,2.023,63.377,0,60.527,0z M2.068,19.005V4.513c0-1.493,1.39-2.708,3.099-2.708h55.36
	c1.709,0,3.101,1.214,3.101,2.708v69.599c0,1.492-1.392,2.709-3.101,2.709H5.166c-1.709,0-3.099-1.217-3.099-2.709V20.81"/>
<line fill="none" x1="0" y1="46.532" x2="0" y2="57.813"/>
<line fill="none" x1="0" y1="33.896" x2="0" y2="44.728"/>
<line fill="none" x1="0" y1="20.81" x2="0" y2="32.092"/>
<line fill="none" x1="2.068" y1="32.092" x2="2.068" y2="20.81"/>
<line fill="none" x1="2.068" y1="44.729" x2="2.068" y2="33.896"/>
<line fill="none" x1="2.068" y1="57.815" x2="2.068" y2="46.532"/>
<path fill="#FFFFFF" d="M54.865,17.973H12.191c-0.826,0-1.497,0.45-1.497,1.006v0.503c0,0.557,0.671,1.007,1.497,1.007h42.675
	c0.826,0,1.496-0.451,1.496-1.007v-0.503C56.364,18.422,55.692,17.973,54.865,17.973z"/>
<path fill="#FFFFFF" d="M54.866,27.032H12.192c-0.826,0-1.497,0.449-1.497,1.006v0.503c0,0.556,0.671,1.006,1.497,1.006h42.675
	c0.826,0,1.495-0.45,1.495-1.006v-0.503C56.364,27.481,55.693,27.032,54.866,27.032z"/>
<path fill="#FFFFFF" d="M54.866,36.092H12.192c-0.826,0-1.497,0.45-1.497,1.007v0.504c0,0.557,0.671,1.008,1.497,1.008h42.675
	c0.826,0,1.495-0.451,1.495-1.008v-0.504C56.364,36.542,55.693,36.092,54.866,36.092z"/>
</svg>
