<?xml version="1.0" encoding="utf-8"?>
<!-- Generator: Adobe Illustrator 16.0.4, SVG Export Plug-In . SVG Version: 6.00 Build 0)  -->
<!DOCTYPE svg PUBLIC "-//W3C//DTD SVG 1.1//EN" "http://www.w3.org/Graphics/SVG/1.1/DTD/svg11.dtd">
<svg version="1.1"
	 id="svg2" sodipodi:docname="outline gearwheel.svg" inkscape:version="0.48.4 r9939" xmlns:inkscape="http://www.inkscape.org/namespaces/inkscape" xmlns:sodipodi="http://sodipodi.sourceforge.net/DTD/sodipodi-0.dtd" xmlns:cc="http://creativecommons.org/ns#" xmlns:rdf="http://www.w3.org/1999/02/22-rdf-syntax-ns#" xmlns:svg="http://www.w3.org/2000/svg" xmlns:dc="http://purl.org/dc/elements/1.1/"
	 xmlns="http://www.w3.org/2000/svg" xmlns:xlink="http://www.w3.org/1999/xlink" x="0px" y="0px" width="100px" height="100px"
	 viewBox="0 0 100 100" enable-background="new 0 0 100 100" xml:space="preserve">
<sodipodi:namedview  inkscape:current-layer="svg2" inkscape:window-x="-4" inkscape:window-maximized="1" inkscape:window-y="-4" inkscape:pageopacity="0" inkscape:window-width="1600" inkscape:window-height="1050" inkscape:pageshadow="2" objecttolerance="10" guidetolerance="10" gridtolerance="10" pagecolor="#ffffff" id="namedview55" showgrid="false" inkscape:cx="-276.32671" borderopacity="1" inkscape:cy="307.87542" inkscape:zoom="0.32593203" bordercolor="#666666">
	</sodipodi:namedview>
<path id="path5989" fill="#FFFFFF" d="M46.424,0c-1.171-0.016-2.233,0.516-2.917,1.181c-0.695,0.675-1.091,1.444-1.25,2.326
	c0,0.011,0,0.024,0,0.035l-1.875,11.215c-3.036,0.824-5.896,2.027-8.542,3.542l-9.201-6.632c-1.636-1.173-4.012-1.009-5.451,0.416
	c0,0.012,0,0.024,0,0.035c-1.679,1.679-3.356,3.356-5.035,5.034c-0.014,0.014-0.021,0.021-0.034,0.035
	c-0.836,0.815-1.234,1.93-1.25,2.882c-0.016,0.969,0.252,1.797,0.764,2.535c0.011,0.012,0.022,0.023,0.035,0.034l6.632,9.236
	c-1.528,2.664-2.754,5.533-3.576,8.542l-11.181,1.84C1.539,42.586,0.01,44.359,0,46.389c0,0.011,0,0.024,0,0.035v7.117v0.035
	c-0.017,1.172,0.516,2.232,1.181,2.916c0.675,0.696,1.445,1.091,2.326,1.25c0.011,0.013,0.022,0.025,0.035,0.035l11.215,1.84
	c0.824,3.038,2.025,5.896,3.542,8.543l-6.632,9.201c-1.175,1.637-1.009,4.011,0.416,5.451c0.012,0,0.024,0,0.035,0
	c1.68,1.68,3.354,3.355,5.034,5.035c0.014,0.012,0.022,0.021,0.035,0.035c0.815,0.839,1.894,1.234,2.848,1.25
	c0.969,0.014,1.831-0.252,2.569-0.766c0.012-0.01,0.023-0.022,0.034-0.033l9.236-6.598c2.668,1.529,5.526,2.719,8.542,3.541
	l1.84,11.182c0.329,1.992,2.102,3.529,4.132,3.541c0.011,0,0.024,0,0.035,0h7.117h0.035c1.172,0.016,2.232-0.516,2.916-1.18
	c0.696-0.676,1.091-1.445,1.25-2.328c0-0.01,0-0.023,0-0.033l1.875-11.217c3.037-0.824,5.897-1.992,8.543-3.506l9.201,6.598
	c1.637,1.172,4.01,1.008,5.451-0.418c1.68-1.68,3.355-3.389,5.035-5.068c0.012-0.014,0.021-0.021,0.035-0.035
	c0.836-0.816,1.234-1.894,1.25-2.848c0.014-0.968-0.252-1.832-0.766-2.568c-0.01-0.013-0.022-0.025-0.033-0.035l-6.633-9.201
	c1.529-2.669,2.754-5.562,3.576-8.576l11.182-1.842c1.992-0.326,3.529-2.102,3.541-4.131v-7.153v-0.034
	c0.017-1.172-0.516-2.233-1.18-2.917c-0.676-0.695-1.444-1.091-2.328-1.25c-0.01,0-0.023,0-0.033,0l-11.217-1.875
	c-0.824-3.034-2.025-5.898-3.541-8.542l6.633-9.201c1.178-1.642,1.014-4.006-0.418-5.451c-0.01,0-0.023,0-0.033,0
	c-1.68-1.68-3.355-3.355-5.035-5.035c-0.014-0.013-0.021-0.021-0.035-0.034c-0.818-0.841-1.929-1.238-2.883-1.25
	c-0.969-0.012-1.801,0.29-2.533,0.799c-0.012,0-0.025,0-0.035,0l-9.236,6.632c-2.662-1.524-5.502-2.722-8.508-3.542L57.742,3.542
	C57.416,1.549,55.641,0.01,53.611,0h-7.153H46.424z M46.354,3.889c0.023,0,0.045,0,0.069,0h7.152h0.035
	c0.226,0.002,0.272,0.035,0.312,0.278l2.049,12.431c0.119,0.777,0.693,1.408,1.457,1.597c3.495,0.818,6.796,2.2,9.793,4.062
	c0.674,0.427,1.541,0.399,2.188-0.069l10.207-7.326c0,0,0.18-0.07,0.279-0.069c0.1,0,0.088-0.02,0.139,0.034
	c0.01,0.013,0.022,0.024,0.035,0.035c1.689,1.689,3.379,3.379,5.068,5.069c0.17,0.17,0.182,0.212,0.035,0.417L77.812,30.59
	c-0.453,0.639-0.481,1.487-0.07,2.153c1.846,2.961,3.238,6.284,4.062,9.826c0.189,0.764,0.819,1.339,1.598,1.458l12.396,2.049
	c-0.004,0,0.173,0.066,0.242,0.139c0.071,0.073,0.072,0.065,0.07,0.14c0,0.023,0,0.045,0,0.069v7.152
	c-0.002,0.234-0.067,0.271-0.312,0.312l-12.396,2.049c-0.773,0.137-1.39,0.726-1.562,1.492c-0.816,3.501-2.23,6.79-4.098,9.793
	c-0.425,0.674-0.398,1.541,0.07,2.188l7.326,10.207c-0.004-0.004,0.072,0.177,0.07,0.279c-0.002,0.101,0.021,0.086-0.035,0.139
	c-0.013,0.01-0.023,0.022-0.035,0.035c-1.689,1.689-3.379,3.379-5.068,5.068c-0.166,0.162-0.218,0.178-0.418,0.035L69.41,77.812
	c-0.646-0.469-1.514-0.495-2.188-0.07c-2.964,1.846-6.25,3.238-9.793,4.062c-0.764,0.189-1.338,0.819-1.457,1.598l-2.049,12.396
	c-0.002,0.002-0.102,0.174-0.174,0.242c-0.073,0.071-0.03,0.072-0.104,0.07c-0.025,0-0.047,0-0.07,0h-7.152
	c-0.234-0.002-0.272-0.032-0.312-0.277l-2.049-12.432c-0.137-0.773-0.726-1.39-1.493-1.562c-3.5-0.816-6.79-2.23-9.792-4.098
	c-0.675-0.425-1.541-0.398-2.188,0.07l-10.208,7.326c0.005-0.004-0.177,0.072-0.277,0.07c-0.102,0-0.086,0.021-0.14-0.035
	c-0.011-0.013-0.022-0.023-0.034-0.035c-1.69-1.689-3.379-3.379-5.069-5.068c-0.174-0.176-0.186-0.207-0.035-0.418l7.361-10.242
	c0.453-0.639,0.48-1.486,0.069-2.152c-1.845-2.964-3.237-6.282-4.062-9.828c-0.189-0.764-0.819-1.338-1.597-1.457L4.201,53.924
	c0.005,0-0.172-0.067-0.243-0.139c-0.07-0.073-0.071-0.063-0.069-0.139c0-0.025,0-0.047,0-0.07v-7.152
	c0.004-0.229,0.079-0.274,0.312-0.312l12.396-2.049c0.774-0.137,1.39-0.726,1.562-1.493c0.816-3.496,2.231-6.791,4.097-9.792
	c0.427-0.675,0.399-1.541-0.069-2.188l-7.326-10.208c0.003,0.004-0.071-0.177-0.069-0.277c0.002-0.102-0.021-0.086,0.034-0.14
	c0.012-0.011,0.024-0.022,0.035-0.034c1.691-1.691,3.378-3.378,5.069-5.069c0.165-0.162,0.219-0.176,0.417-0.035v0.035l10.242,7.326
	c0.639,0.453,1.487,0.48,2.153,0.069c2.963-1.845,6.281-3.237,9.826-4.062c0.764-0.189,1.339-0.819,1.458-1.597l2.049-12.396
	c0,0.004,0.101-0.172,0.174-0.243C46.322,3.888,46.279,3.887,46.354,3.889z M49.652,27.708c-0.059,0.009-0.116,0.021-0.173,0.035
	c-0.687,0.018-1.386,0.057-2.084,0.139c-12.201,1.44-20.988,12.521-19.548,24.723c1.439,12.2,12.555,20.987,24.757,19.548
	c0.023-0.01,0.046-0.022,0.069-0.035h0.069h0.034c12.113-1.529,20.809-12.587,19.375-24.722
	C70.803,35.958,60.943,27.526,49.652,27.708z M49.723,31.598c9.32-0.152,17.424,6.773,18.541,16.25
	c1.188,10.068-5.943,19.176-16.007,20.416c-0.023,0-0.046,0-0.069,0h-0.035c-10.107,1.192-19.224-6.002-20.416-16.111
	c-1.192-10.107,6.003-19.224,16.111-20.416C48.477,31.662,49.099,31.607,49.723,31.598z"/>
</svg>
