<?xml version="1.0" encoding="utf-8"?>
<!-- Generator: Adobe Illustrator 16.0.4, SVG Export Plug-In . SVG Version: 6.00 Build 0)  -->
<!DOCTYPE svg PUBLIC "-//W3C//DTD SVG 1.1//EN" "http://www.w3.org/Graphics/SVG/1.1/DTD/svg11.dtd">
<svg version="1.1" id="Layer_1" xmlns="http://www.w3.org/2000/svg" xmlns:xlink="http://www.w3.org/1999/xlink" x="0px" y="0px"
	 width="100px" height="100px" viewBox="0 0 100 100" enable-background="new 0 0 100 100" xml:space="preserve">
<g id="Layer_1_1_">
	<g>
		<polygon fill="#00FFFF" points="25.751,14.868 27.667,12.994 48.841,34.649 52.756,34.649 61.578,43.474 73.936,43.474 
			79.079,46.953 97.789,46.953 97.789,49.633 78.258,49.633 73.114,46.154 60.468,46.154 51.645,37.329 47.714,37.329 		"/>
	</g>
	<g>
		<polygon fill="#00FFFF" points="28.962,41.986 28.962,39.307 51.212,39.307 59.424,46.148 59.424,53.029 72.172,64.057 
			72.172,74.473 69.491,74.473 69.491,65.281 56.744,54.254 56.744,47.403 50.242,41.986 		"/>
	</g>
	<g>
		<polygon fill="#00FFFF" points="11.009,58.129 16.313,52.301 29.519,52.301 36.378,44.21 51.07,44.21 54.765,48.214 
			54.765,58.475 57.804,61.514 55.909,63.409 52.085,59.586 52.085,49.26 49.897,46.889 37.62,46.889 30.761,54.981 17.497,54.981 
			12.989,59.932 		"/>
	</g>
	<g>
		<polygon fill="#00FFFF" points="49.505,27.015 51.461,25.183 65.524,40.198 93.239,40.198 93.239,42.878 64.362,42.878 		"/>
	</g>
	<g>
		<path fill="#00FFFF" d="M28.962,40.646c0-2.357-1.914-4.271-4.275-4.271c-2.359,0-4.271,1.914-4.271,4.271
			c0,2.363,1.912,4.274,4.271,4.274C27.048,44.921,28.962,43.01,28.962,40.646z"/>
	</g>
	<g>
		<path fill="#00FFFF" d="M25.472,28.026c0-2.364-1.92-4.275-4.277-4.275c-2.361,0-4.273,1.912-4.273,4.275
			c0,2.359,1.912,4.271,4.273,4.271C23.552,32.298,25.472,30.386,25.472,28.026z"/>
	</g>
	<g>
		<circle fill="#00FFFF" cx="21.193" cy="28.026" r="2.138"/>
	</g>
	<g>
		<path fill="#00FFFF" d="M12.782,40.646c0-2.357-1.91-4.271-4.271-4.271c-2.359,0-4.275,1.914-4.275,4.271
			c0,2.363,1.916,4.274,4.275,4.274S12.782,43.01,12.782,40.646z"/>
	</g>
	<g>
		<path fill="#00FFFF" d="M10.646,40.646c0-1.179-0.955-2.137-2.135-2.137c-1.182,0-2.139,0.958-2.139,2.137
			c0,1.185,0.957,2.139,2.139,2.139C9.69,42.785,10.646,41.831,10.646,40.646z"/>
	</g>
	<g>
		<path fill="#00FFFF" d="M27.603,10.748c0-2.366-1.91-4.276-4.27-4.276c-2.361,0-4.277,1.912-4.277,4.276
			c0,2.361,1.916,4.271,4.277,4.271C25.692,15.017,27.603,13.109,27.603,10.748z"/>
	</g>
	<g>
		<path fill="#00FFFF" d="M25.472,10.748c0-1.183-0.959-2.139-2.141-2.139c-1.184,0-2.139,0.956-2.139,2.139
			c0,1.175,0.955,2.136,2.139,2.136C24.513,12.884,25.472,11.923,25.472,10.748z"/>
	</g>
	<g>
		<path fill="#00FFFF" d="M62.694,65.709c0-2.357-1.913-4.27-4.276-4.27c-2.359,0-4.271,1.91-4.271,4.27
			c0,2.366,1.913,4.276,4.271,4.276C60.782,69.985,62.694,68.075,62.694,65.709z"/>
	</g>
	<g>
		<path fill="#00FFFF" d="M60.557,65.709c0-1.181-0.958-2.135-2.139-2.135c-1.174,0-2.137,0.954-2.137,2.135
			c0,1.184,0.963,2.141,2.137,2.141C59.598,67.848,60.557,66.891,60.557,65.709z"/>
	</g>
	<g>
		<path fill="#00FFFF" d="M75.1,77.844c0-2.362-1.91-4.274-4.27-4.274c-2.365,0-4.277,1.912-4.277,4.274
			c0,2.365,1.912,4.274,4.277,4.274C73.189,82.119,75.1,80.209,75.1,77.844z"/>
	</g>
	<g>
		<path fill="#00FFFF" d="M72.967,77.844c0-1.183-0.955-2.139-2.136-2.139c-1.185,0-2.137,0.956-2.137,2.139
			c0,1.18,0.952,2.136,2.137,2.136C72.012,79.979,72.967,79.023,72.967,77.844z"/>
	</g>
	<g>
		<path fill="#00FFFF" d="M49.897,52.891c0-2.365-1.918-4.275-4.273-4.275c-2.361,0-4.277,1.91-4.277,4.275
			c0,2.359,1.916,4.271,4.277,4.271C47.979,57.161,49.897,55.252,49.897,52.891z"/>
	</g>
	<g>
		<path fill="#00FFFF" d="M47.761,52.891c0-1.182-0.959-2.139-2.139-2.139c-1.184,0-2.139,0.957-2.139,2.139
			c0,1.178,0.955,2.134,2.139,2.134C46.802,55.024,47.761,54.068,47.761,52.891z"/>
	</g>
	<g>
		<polygon fill="#00FFFF" points="44.284,64.637 44.284,57.161 46.962,57.161 46.962,63.475 76.98,91.572 75.15,93.529 		"/>
	</g>
	<g>
		<path fill="#00FFFF" d="M52.215,23.956c0-2.363-1.914-4.277-4.273-4.277c-2.357,0-4.275,1.914-4.275,4.277
			c0,2.359,1.918,4.272,4.275,4.272C50.301,28.229,52.215,26.316,52.215,23.956z"/>
	</g>
	<g>
		<path fill="#00FFFF" d="M13.886,61.098c0-2.36-1.914-4.272-4.277-4.272c-2.354,0-4.271,1.912-4.271,4.272
			c0,2.363,1.918,4.274,4.271,4.274C11.972,65.373,13.886,63.463,13.886,61.098z"/>
	</g>
</g>
<g id="_x3C_Layer_x3E_">
</g>
<g id="toolbar">
</g>
</svg>
