<?xml version="1.0" encoding="utf-8"?>
<!-- Generator: Adobe Illustrator 16.0.4, SVG Export Plug-In . SVG Version: 6.00 Build 0)  -->
<!DOCTYPE svg PUBLIC "-//W3C//DTD SVG 1.1//EN" "http://www.w3.org/Graphics/SVG/1.1/DTD/svg11.dtd">
<svg version="1.1" id="Layer_1" xmlns="http://www.w3.org/2000/svg" xmlns:xlink="http://www.w3.org/1999/xlink" x="0px" y="0px"
	 width="100px" height="100px" viewBox="0 0 100 100" enable-background="new 0 0 100 100" xml:space="preserve">
<g id="Layer_1_1_">
	<g>
		<polygon fill="#00FFFF" points="54.312,37.329 50.381,37.329 41.558,46.154 28.912,46.154 23.768,49.633 4.236,49.633 
			4.236,46.953 22.946,46.953 28.09,43.474 40.447,43.474 49.27,34.649 53.185,34.649 74.358,12.994 76.274,14.868 		"/>
	</g>
	<g>
		<polygon fill="#00FFFF" points="51.783,41.986 45.281,47.403 45.281,54.254 32.534,65.281 32.534,74.473 29.854,74.473 
			29.854,64.057 42.602,53.029 42.602,46.148 50.813,39.307 73.063,39.307 73.063,41.986 		"/>
	</g>
	<g>
		<polygon fill="#00FFFF" points="89.037,59.932 84.528,54.98 71.264,54.98 64.405,46.889 52.129,46.889 49.94,49.26 49.94,59.586 
			46.116,63.409 44.221,61.514 47.26,58.475 47.26,48.214 50.955,44.21 65.647,44.21 72.506,52.301 85.713,52.301 91.017,58.129 		
			"/>
	</g>
	<g>
		<polygon fill="#00FFFF" points="37.664,42.878 8.787,42.878 8.787,40.198 36.502,40.198 50.564,25.183 52.521,27.015 		"/>
	</g>
	<g>
		<path fill="#00FFFF" d="M77.338,44.92c2.359,0,4.271-1.911,4.271-4.274c0-2.357-1.912-4.271-4.271-4.271
			c-2.36,0-4.274,1.914-4.274,4.271C73.063,43.01,74.978,44.921,77.338,44.92z"/>
	</g>
	<g>
		<path fill="#00FFFF" d="M80.83,32.297c2.361,0,4.273-1.912,4.273-4.271c0-2.363-1.912-4.275-4.273-4.275
			c-2.356,0-4.277,1.911-4.277,4.275C76.553,30.386,78.474,32.298,80.83,32.297z"/>
	</g>
	<g>
		<circle fill="#00FFFF" cx="80.833" cy="28.026" r="2.138"/>
	</g>
	<g>
		<path fill="#00FFFF" d="M93.514,44.92c2.359,0,4.275-1.911,4.275-4.274c0-2.357-1.916-4.271-4.275-4.271
			c-2.36,0-4.271,1.914-4.271,4.271C89.243,43.01,91.155,44.92,93.514,44.92z"/>
	</g>
	<g>
		<path fill="#00FFFF" d="M93.514,42.785c1.183,0,2.14-0.954,2.14-2.139c0-1.179-0.957-2.137-2.14-2.137
			c-1.18,0-2.135,0.958-2.135,2.137C91.379,41.831,92.336,42.785,93.514,42.785z"/>
	</g>
	<g>
		<path fill="#00FFFF" d="M78.692,15.019c2.36,0,4.276-1.91,4.276-4.271c0-2.364-1.916-4.276-4.276-4.276s-4.271,1.91-4.271,4.276
			C74.422,13.109,76.334,15.017,78.692,15.019z"/>
	</g>
	<g>
		<path fill="#00FFFF" d="M78.694,12.884c1.185,0,2.14-0.961,2.14-2.136c0-1.183-0.955-2.139-2.14-2.139
			c-1.183,0-2.142,0.956-2.142,2.139C76.553,11.923,77.512,12.884,78.694,12.884z"/>
	</g>
	<g>
		<path fill="#00FFFF" d="M43.607,69.984c2.357,0,4.271-1.909,4.271-4.275c0-2.359-1.912-4.27-4.271-4.27
			c-2.363,0-4.275,1.912-4.275,4.27C39.332,68.075,41.243,69.984,43.607,69.984z"/>
	</g>
	<g>
		<path fill="#00FFFF" d="M43.607,67.85c1.174,0,2.137-0.957,2.137-2.141c0-1.182-0.963-2.135-2.137-2.135
			c-1.182,0-2.139,0.953-2.139,2.135S42.428,67.848,43.607,67.85z"/>
	</g>
	<g>
		<path fill="#00FFFF" d="M31.195,82.118c2.365,0,4.277-1.909,4.277-4.274c0-2.361-1.912-4.273-4.277-4.273
			c-2.359,0-4.27,1.912-4.27,4.273C26.926,80.209,28.836,82.119,31.195,82.118z"/>
	</g>
	<g>
		<path fill="#00FFFF" d="M31.194,79.98c1.185,0,2.138-0.957,2.138-2.137c0-1.183-0.953-2.139-2.138-2.139
			c-1.181,0-2.136,0.956-2.136,2.139C29.059,79.023,30.014,79.979,31.194,79.98z"/>
	</g>
	<g>
		<path fill="#00FFFF" d="M56.401,57.162c2.36,0,4.276-1.912,4.276-4.271c0-2.365-1.916-4.274-4.276-4.274
			c-2.354,0-4.272,1.909-4.272,4.274C52.129,55.252,54.047,57.161,56.401,57.162z"/>
	</g>
	<g>
		<path fill="#00FFFF" d="M56.403,55.025c1.185,0,2.14-0.957,2.14-2.135c0-1.182-0.955-2.139-2.14-2.139
			c-1.18,0-2.14,0.957-2.14,2.139C54.264,54.068,55.224,55.023,56.403,55.025z"/>
	</g>
	<g>
		<polygon fill="#00FFFF" points="26.875,93.529 25.045,91.572 55.063,63.475 55.063,57.161 57.741,57.161 57.741,64.637 		"/>
	</g>
	<g>
		<path fill="#00FFFF" d="M54.084,28.228c2.356,0,4.274-1.913,4.274-4.272c0-2.363-1.918-4.277-4.274-4.277
			c-2.359,0-4.273,1.914-4.273,4.277C49.811,26.316,51.725,28.229,54.084,28.228z"/>
	</g>
	<g>
		<path fill="#00FFFF" d="M92.416,65.372c2.354,0,4.271-1.911,4.271-4.274c0-2.359-1.917-4.271-4.271-4.271
			c-2.363,0-4.277,1.912-4.277,4.271C88.139,63.463,90.053,65.373,92.416,65.372z"/>
	</g>
</g>
<g id="_x3C_Layer_x3E_">
</g>
<g id="toolbar">
</g>
</svg>
