<?xml version="1.0" encoding="utf-8"?>
<!-- Generator: Adobe Illustrator 16.0.4, SVG Export Plug-In . SVG Version: 6.00 Build 0)  -->
<!DOCTYPE svg PUBLIC "-//W3C//DTD SVG 1.1//EN" "http://www.w3.org/Graphics/SVG/1.1/DTD/svg11.dtd">
<svg version="1.1" id="Layer_1" xmlns="http://www.w3.org/2000/svg" xmlns:xlink="http://www.w3.org/1999/xlink" x="0px" y="0px"
	 width="100px" height="100px" viewBox="0 0 100 100" enable-background="new 0 0 100 100" xml:space="preserve">
<g>
	<path fill="#5CC3E7" d="M77.984,82.373H63.092c-1.583,0-3.298-1.047-3.816-2.327c0,0-2.371-5.884-3.961-12.692
		c-0.707-3.02-1.348-6.188-1.348-6.188c-0.273-1.335,0.538-3.097,1.799-3.913c0,0,20.483-13.244,23.543-26.345
		c2.781-11.905,1.957-28.445,1.957-28.445C81.198,1.108,79.848,0,78.266,0H22.401c-1.583,0-2.933,1.108-3,2.461
		c0,0-0.823,16.541,1.957,28.445c3.06,13.101,23.544,26.348,23.544,26.348c1.264,0.812,2.074,2.577,1.802,3.911
		c0,0-0.646,3.169-1.35,6.188c-1.592,6.81-3.965,12.692-3.965,12.692c-0.517,1.28-2.234,2.327-3.815,2.327H22.68
		c-1.582,0-2.878,1.109-2.878,2.465V97.7c0,1.354,1.296,2.463,2.878,2.463h55.304c1.582,0,2.879-1.108,2.879-2.463V84.838
		C80.865,83.482,79.568,82.373,77.984,82.373z M64.88,85.083c0.79,0,1.438,0.558,1.438,1.231v6.297h-0.002
		c0,0.677-0.649,1.229-1.439,1.229H35.788c-0.79,0-1.438-0.554-1.438-1.229v-6.297c0-0.676,0.647-1.231,1.438-1.231"/>
	<path fill="#5CC3E7" d="M99.415,16.841c-0.353-1.253-0.849-2.504-1.653-3.768c-0.812-1.304-2.128-2.618-3.738-3.46
		c-1.607-0.862-3.45-1.28-5.17-1.291c-1.725-0.021-3.324,0.32-4.722,0.871c-0.29,0.113-0.29,0.113-0.29,0.113
		c-0.299,0.144-0.552,0.815-0.562,1.493l-0.037,1.732c-0.02,0.677,0.598,1.111,1.369,0.963c0,0,0.188-0.036,0.947-0.058
		c0.947-0.024,1.83,0.083,2.543,0.314c0.356,0.106,0.67,0.258,0.938,0.414c0.27,0.152,0.493,0.33,0.679,0.519
		c0.187,0.189,0.343,0.391,0.482,0.611c0.067,0.11,0.067,0.11,0.067,0.11c0.065,0.132,0.131,0.269,0.147,0.304
		c0.019,0.033,0.065,0.146,0.08,0.172c0.009,0.026,0.021,0.051,0.021,0.056c0.004,0.003,0.004,0.007,0.008,0.009
		c0,0.002-0.004,0-0.008-0.004c0-0.004-0.009-0.011-0.002,0c0.006,0.014,0.022,0.045,0.031,0.068
		c0.012,0.026,0.196,0.581,0.413,1.231c0,0,0.069,0.214,0.201,1.014c0.26,1.615,0.276,3.396,0.043,5.124
		c-0.229,1.717-0.707,3.441-1.409,4.746c-0.172,0.324-0.357,0.61-0.533,0.853c-0.097,0.125-0.16,0.208-0.273,0.333
		c-0.125,0.13-0.25,0.253-0.399,0.386c-0.575,0.523-1.254,1.005-1.952,1.374c-1.404,0.742-2.853,1.109-4.621,0.894
		C81.7,31.927,81.7,31.927,81.7,31.927c-0.358-0.078-0.818,0.393-1.022,1.048l-0.766,2.127c-0.264,0.64-0.298,1.254-0.079,1.367
		c0,0,0,0,0.218,0.092c1.41,0.614,3.072,1.002,4.762,1.042c1.692,0.056,3.375-0.23,4.906-0.713c1.529-0.498,2.92-1.185,4.182-2.042
		c0.312-0.213,0.629-0.452,0.934-0.696c0.309-0.253,0.65-0.566,0.93-0.853c0.575-0.587,1.047-1.19,1.449-1.792
		c0.803-1.207,1.352-2.417,1.775-3.627c0.42-1.209,0.697-2.422,0.865-3.639C100.158,21.801,100.094,19.344,99.415,16.841z"/>
	<path fill="#5CC3E7" d="M20.843,36.463c0.221-0.114,0.186-0.73-0.079-1.369l-0.766-2.126c-0.204-0.653-0.666-1.125-1.025-1.048
		c0,0,0,0-0.314,0.037c-1.769,0.215-3.213-0.152-4.621-0.894c-0.699-0.368-1.375-0.851-1.951-1.375
		c-0.148-0.132-0.275-0.256-0.398-0.386c-0.116-0.125-0.179-0.207-0.272-0.333c-0.174-0.243-0.36-0.529-0.533-0.851
		c-0.702-1.305-1.188-3.031-1.413-4.748c-0.228-1.727-0.214-3.509,0.047-5.123c0.13-0.799,0.199-1.013,0.199-1.013
		c0.215-0.652,0.399-1.206,0.411-1.231c0.013-0.026,0.027-0.056,0.031-0.068c0.006-0.013,0-0.005-0.003,0
		c-0.003,0.004-0.005,0.006-0.003,0.004c0-0.002,0.002-0.006,0.003-0.009c0.002-0.004,0.011-0.028,0.021-0.056
		c0.012-0.027,0.062-0.138,0.077-0.172c0.015-0.034,0.082-0.169,0.146-0.303c0,0,0,0,0.068-0.11c0.137-0.222,0.29-0.422,0.478-0.61
		c0.185-0.193,0.408-0.367,0.678-0.52c0.269-0.156,0.58-0.306,0.938-0.415c0.712-0.23,1.591-0.338,2.54-0.314
		c0.759,0.025,0.949,0.061,0.949,0.061c0.771,0.147,1.389-0.286,1.369-0.963l-0.039-1.732c-0.009-0.678-0.262-1.349-0.563-1.492
		c0,0,0,0-0.287-0.113c-1.4-0.553-3.005-0.893-4.725-0.872C10.092,8.33,8.249,8.749,6.64,9.61c-1.61,0.842-2.928,2.157-3.736,3.459
		c-0.808,1.266-1.303,2.516-1.655,3.769c-0.68,2.503-0.743,4.96-0.416,7.395C1,25.45,1.282,26.662,1.7,27.871
		c0.42,1.209,0.973,2.421,1.773,3.626c0.4,0.604,0.87,1.207,1.444,1.793c0.281,0.286,0.62,0.6,0.931,0.853
		c0.303,0.245,0.621,0.482,0.932,0.696c1.262,0.859,2.649,1.546,4.182,2.043c1.528,0.484,3.211,0.768,4.903,0.711
		c1.689-0.038,3.35-0.425,4.763-1.041C20.843,36.463,20.843,36.463,20.843,36.463z"/>
</g>
<rect id="_x3C_Slice_x3E_" x="41.5" y="89.5" fill="none" width="24" height="5"/>
<path fill="#5DC3E7" d="M68.88,87.746c-3.512-6.63-14.701-4.432-20.713-3.914c-1.207,0.104-2.192,0.534-2.965,1.147
	c-1.429-1.516-3.683-2.295-6.058-1.131c-1.543,0.757-3.264,0.824-4.833,1.666c-3.86,2.07-2.881,8.035,1.194,9.139
	c5.647,1.529,11.735,1.72,17.527,1.026c0.382,0.256,0.812,0.476,1.306,0.641C59.521,98.057,73.52,96.508,68.88,87.746z"/>
</svg>
