<?xml version="1.0" encoding="utf-8"?>
<!-- Generator: Adobe Illustrator 16.0.4, SVG Export Plug-In . SVG Version: 6.00 Build 0)  -->
<!DOCTYPE svg PUBLIC "-//W3C//DTD SVG 1.1//EN" "http://www.w3.org/Graphics/SVG/1.1/DTD/svg11.dtd">
<svg version="1.1" id="Layer_1" xmlns="http://www.w3.org/2000/svg" xmlns:xlink="http://www.w3.org/1999/xlink" x="0px" y="0px"
	 width="100px" height="77.418px" viewBox="0 0 100 77.418" enable-background="new 0 0 100 77.418" xml:space="preserve">
<g>
	<path fill="#5CC3E7" d="M66.131,48.387c3.424,0,6.521,1.236,9.008,3.223l-4.553-34.369c-0.812-6.148-6.104-10.787-12.312-10.787
		H19.128c-6.19,0-11.481,4.625-12.307,10.758L2.176,51.7c2.5-2.039,5.645-3.312,9.119-3.312H66.131L66.131,48.387z"/>
	<path fill="#5CC3E7" d="M65.324,64.516c0,0.895-0.723,1.611-1.613,1.611c-0.889,0-1.609-0.723-1.609-1.611
		c0-0.893,0.721-1.613,1.609-1.613C64.605,62.902,65.324,63.624,65.324,64.516z"/>
	<path fill="#5CC3E7" d="M66.131,51.611H11.293c-6.227,0-11.291,5.063-11.291,11.291v3.226c0,6.227,5.064,11.291,11.291,11.291
		h54.837c6.229,0,11.291-5.062,11.291-11.291v-3.226C77.422,56.676,72.357,51.611,66.131,51.611z M63.711,69.353
		c-2.668,0-4.838-2.17-4.838-4.838c0-2.67,2.17-4.843,4.838-4.843c2.67,0,4.84,2.173,4.84,4.843
		C68.551,67.184,66.381,69.353,63.711,69.353z"/>
	<path fill="#5CC3E7" d="M73.783,16.817l3.32,25.117h11.604c3.424,0,6.521,1.236,9.008,3.225l-4.551-34.37
		C92.354,4.638,87.061,0,80.854,0H41.706c-3.142,0-6.087,1.197-8.326,3.226h24.896C66.092,3.224,72.762,9.069,73.783,16.817z"/>
	<path fill="#5CC3E7" d="M88.711,45.161H77.539l1.482,11.209c1.01,1.971,1.625,4.172,1.625,6.532v3.226
		c0,1.699-0.35,3.312-0.891,4.84h8.951c6.229,0,11.291-5.062,11.291-11.291v-3.225C100.002,50.225,94.939,45.161,88.711,45.161z
		 M86.293,62.902c-2.67,0-4.84-2.17-4.84-4.84c0-2.668,2.17-4.838,4.84-4.838c2.668,0,4.838,2.17,4.838,4.838
		C91.131,60.732,88.961,62.902,86.293,62.902z"/>
	<path fill="#5CC3E7" d="M87.904,58.062c0,0.894-0.721,1.61-1.611,1.61c-0.893,0-1.611-0.723-1.611-1.61
		c0-0.894,0.723-1.61,1.611-1.61C87.184,56.452,87.904,57.172,87.904,58.062z"/>
</g>
</svg>
