<?xml version="1.0" encoding="utf-8"?>
<!-- Generator: Adobe Illustrator 16.0.4, SVG Export Plug-In . SVG Version: 6.00 Build 0)  -->
<!DOCTYPE svg PUBLIC "-//W3C//DTD SVG 1.1//EN" "http://www.w3.org/Graphics/SVG/1.1/DTD/svg11.dtd">
<svg version="1.1" id="Layer_1" xmlns="http://www.w3.org/2000/svg" xmlns:xlink="http://www.w3.org/1999/xlink" x="0px" y="0px"
	 width="90px" height="90px" viewBox="0 0 90 90" enable-background="new 0 0 90 90" xml:space="preserve">
<g id="Layer_1_1_" display="none">
	<path display="inline" d="M70.828,2.784h-2.139c-0.521,0-0.982,0.06-1.262,0.382c-0.173,0.201-0.275,0.502-0.275,0.958v4.611
		c0,1.188,0.688,1.339,1.537,1.339h2.039h0.1c0.85,0,1.537-0.151,1.537-1.339v-4.61C72.365,2.937,71.678,2.784,70.828,2.784z"/>
	<polygon display="inline" points="35.496,14.294 35.496,14.294 35.496,14.294 35.496,14.294 35.496,12.365 35.496,12.365 
		35.496,12.365 35.496,12.365 	"/>
	<g display="inline">
		<path d="M73.869,59.139c0,0.682-0.252,0.563-0.562,0.563l0,0c-0.309,0-0.559,0.118-0.559-0.563v-5.674
			c0-0.686,0.25-0.623,0.559-0.623l0,0c0.311,0,0.562-0.062,0.562,0.623V59.139z"/>
		<path d="M19.799,59.139c0,0.682-0.25,0.563-0.559,0.563l0,0c-0.309,0-0.56,0.118-0.56-0.563v-5.674c0-0.686,0.25-0.623,0.56-0.623
			l0,0c0.309,0,0.559-0.062,0.559,0.623V59.139z"/>
	</g>
	<path display="inline" d="M73.792,9.415c0,0.684-0.25,0.563-0.56,0.563l0,0c-0.31,0-0.562,0.122-0.562-0.563V3.742
		c0-0.684,0.252-0.622,0.562-0.622l0,0c0.31,0,0.56-0.062,0.56,0.622V9.415z"/>
	<path display="inline" d="M18.757,9.415c0,0.684,0.267,0.563,0.595,0.563l0,0c0.329,0,0.595,0.122,0.595-0.563V3.742
		c0-0.684-0.266-0.622-0.595-0.622l0,0c-0.328,0-0.595-0.062-0.595,0.622V9.415z"/>
	<path display="inline" d="M72.438,57.939c0,0.944-0.769,1.715-1.713,1.715H21.826c-0.947,0-1.714-0.771-1.714-1.715v-3.328
		c0-0.947,0.768-1.715,1.714-1.715h48.898c0.944,0,1.713,0.768,1.713,1.715V57.939z M68.811,55.162
		c-0.643,0-1.164,0.521-1.164,1.164c0,0.646,0.521,1.17,1.164,1.17c0.646,0,1.166-0.523,1.166-1.17
		C69.979,55.684,69.456,55.162,68.811,55.162z M23.837,55.346c0-0.395-0.319-0.715-0.714-0.715l0,0c-0.395,0-0.714,0.32-0.714,0.715
		v1.856c0,0.396,0.319,0.715,0.714,0.715l0,0c0.395,0,0.714-0.319,0.714-0.715V55.346z M25.839,55.346
		c0-0.395-0.322-0.715-0.715-0.715l0,0c-0.396,0-0.716,0.32-0.716,0.715v1.856c0,0.396,0.32,0.715,0.716,0.715l0,0
		c0.393,0,0.715-0.319,0.715-0.715V55.346z"/>
	<path display="inline" d="M23.976,2.695h-2.137c-0.522,0-0.983,0.06-1.261,0.382C20.404,3.278,20.3,3.58,20.3,4.036v4.611
		c0,1.188,0.69,1.339,1.539,1.339h2.038h0.099c0.85,0,1.539-0.151,1.539-1.339V4.036C25.514,2.848,24.825,2.695,23.976,2.695z"/>
	<rect x="28.507" y="33.382" display="inline" width="36.291" height="1.192"/>
	<path display="inline" d="M26.406,4.665h39.828c0.218,0,0.394,0.172,0.394,0.386v-1.06c0-0.502,0.113-0.834,0.306-1.055H25.702
		c0.193,0.221,0.308,0.553,0.308,1.055V5.05C26.01,4.837,26.188,4.665,26.406,4.665z"/>
	<path display="inline" d="M68.32,10.539c-0.936,0-1.693-0.167-1.693-1.474V5.05c0,0.213-0.176,0.386-0.393,0.386H38.065
		c0.266,0.349,0.432,0.801,0.432,1.302v2.369h25.88c0.193,0,0.354,0.156,0.354,0.348s-0.158,0.348-0.354,0.348H38.489
		c-0.044,1.048-0.789,1.883-1.708,1.883h-1.078v1.136h-0.524v-1.136h-0.97c-0.917,0-1.662-0.835-1.707-1.883H28.86
		c-0.195,0-0.354-0.156-0.354-0.348s0.159-0.348,0.354-0.348h3.634v-2.37c0-0.501,0.167-0.953,0.432-1.302h-6.521
		c-0.218,0-0.396-0.172-0.396-0.386v4.016c0,1.308-0.768,1.474-1.714,1.474h-2.31V52.25h5.14V37.478H24.53
		c-0.458,0-0.452-0.649-0.452-1.452c0-0.803-0.006-1.452,0.452-1.452h2.596v-1.192h-2.762c-0.157,0-0.285-0.127-0.285-0.286
		c0-0.158,0.128-0.287,0.285-0.287h2.762v-20.09c0-0.486,0.309-0.881,0.69-0.881c0.382,0,0.691,0.395,0.691,0.881v20.092h36.291
		V12.719c0-0.486,0.313-0.881,0.692-0.881c0.383,0,0.691,0.395,0.691,0.881v20.092h2.479c0.158,0,0.287,0.128,0.287,0.287
		c0,0.158-0.129,0.286-0.287,0.286h-2.479v1.192h2.358c0.456,0,0.405,0.649,0.405,1.452c0,0.802,0.051,1.452-0.405,1.452h-2.358
		v14.77h4.381V10.539H68.32z"/>
	<rect x="28.507" y="37.478" display="inline" width="36.291" height="14.772"/>
</g>
<g id="Layer_2">
	<path fill="#5DC3E7" d="M78.681,84.789c-1.14,0-2.065-0.924-2.065-2.062c0-1.137,0.926-2.064,2.065-2.064
		c1.137,0,2.062,0.928,2.062,2.064C80.743,83.865,79.819,84.789,78.681,84.789z M78.681,81.303c-0.785,0-1.426,0.639-1.426,1.424
		s0.641,1.424,1.426,1.424c0.782,0,1.424-0.639,1.424-1.424S79.466,81.303,78.681,81.303z"/>
	<path fill="#5DC3E7" d="M11.47,84.033c0,0.592-0.479,1.068-1.067,1.068l0,0c-0.59,0-1.068-0.477-1.068-1.068v-2.775
		c0-0.588,0.479-1.068,1.068-1.068l0,0c0.589,0,1.067,0.48,1.067,1.068V84.033z"/>
	<path fill="#5DC3E7" d="M14.461,84.033c0,0.592-0.479,1.068-1.066,1.068l0,0c-0.589,0-1.068-0.477-1.068-1.068v-2.775
		c0-0.588,0.479-1.068,1.068-1.068l0,0c0.59,0,1.066,0.48,1.066,1.068V84.033z"/>
	<path fill="#5DC3E7" d="M85.398,77.396c-0.46,0-0.835-0.094-0.835,0.932v8.477c0,1.023,0.375,0.842,0.835,0.842
		c0.464,0,0.839,0.18,0.839-0.842v-8.477C86.236,77.307,85.861,77.396,85.398,77.396z"/>
	<path fill="#5DC3E7" d="M4.599,77.396c-0.463,0-0.836-0.094-0.836,0.932v8.477c0,1.023,0.375,0.842,0.836,0.842
		s0.837,0.18,0.837-0.842v-8.477C5.436,77.307,5.062,77.396,4.599,77.396z"/>
	<path fill="#5DC3E7" d="M85.253,3.092c-0.461,0-0.836-0.093-0.836,0.931V4.51c0-2.633-1.998-2.633-2.956-2.633h-3.517
		c-0.729,0-2.061,0.008-2.653,1.172H14.838c-0.601-1.162-1.942-1.172-2.683-1.172h-3.56c-0.904,0-2.693,0.029-2.939,2.154V4.024
		c0-1.024-0.399-0.93-0.89-0.93c-0.492,0-0.89-0.093-0.89,0.93V12.5c0,1.023,0.397,0.844,0.89,0.844c0.473,0,0.856,0.155,0.884-0.75
		c0.214,1.816,1.565,2.091,2.518,2.125v62.478c-1.509,0.15-2.695,1.412-2.695,2.963v4.975c0,1.646,1.341,2.988,2.99,2.988h73.071
		c1.649,0,2.991-1.344,2.991-2.988v-4.977c0-1.549-1.187-2.811-2.695-2.961V14.721c1.022-0.03,2.587-0.297,2.587-2.625V12.5
		c0,1.022,0.375,0.843,0.836,0.843c0.462,0,0.837,0.18,0.837-0.843V4.024C86.09,3,85.715,3.092,85.253,3.092z M75.03,4.119
		c-0.015,0.132-0.041,0.245-0.041,0.394v1.039c-0.053-0.016-0.107-0.031-0.164-0.031H15.31c-0.06,0-0.112,0.016-0.164,0.031V4.512
		c0-0.15-0.029-0.26-0.041-0.394H75.03L75.03,4.119z M30.812,7.194c1.178,0,2.136,1.135,2.136,2.53v4.437
		c0,1.397-0.958,2.532-2.136,2.532H26.97c-1.178,0-2.135-1.135-2.135-2.532V9.723c0-1.395,0.957-2.531,2.135-2.531h3.843V7.194z
		 M15.146,12.096V6.639c0.053,0.015,0.105,0.031,0.164,0.031h10.393c-1.014,0.543-1.721,1.702-1.721,3.053v2.562h-5.004
		c-0.291,0-0.528,0.323-0.528,0.72c0,0.399,0.237,0.722,0.528,0.722h5.004v0.435c0,1.868,1.341,3.385,2.989,3.385h1.39v2.363h1.068
		v-2.363h1.387c1.648,0,2.99-1.52,2.99-3.385v-0.435H72.05c0.291,0,0.528-0.322,0.528-0.722c0-0.396-0.237-0.72-0.528-0.72H33.806
		V9.723c0-1.351-0.709-2.51-1.72-3.053h42.741c0.059,0,0.112-0.017,0.164-0.031v5.457c0,2.629,1.998,2.629,2.957,2.629h2.815v62.441
		h-6.012V55.129h3.521c0.686,0,0.608-0.973,0.608-2.168c0-1.199,0.077-2.172-0.608-2.172h-3.521v-1.781h3.698
		c0.238,0,0.432-0.191,0.432-0.426c0-0.236-0.193-0.428-0.432-0.428h-3.698v-30.6c0-0.726-0.463-1.315-1.031-1.315
		c-0.571,0-1.034,0.59-1.034,1.315v30.6H18.449v-30.6c0-0.726-0.463-1.315-1.032-1.315s-1.031,0.59-1.031,1.315v30.6h-4.129
		c-0.234,0-0.427,0.191-0.427,0.428c0,0.234,0.19,0.426,0.427,0.426h4.129v1.781h-3.881c-0.686,0-0.675,0.973-0.675,2.172
		c0,1.195-0.009,2.168,0.675,2.168h3.881v22.037H9.238V14.725h2.916C13.124,14.725,15.146,14.725,15.146,12.096z M18.449,50.789
		v-1.781h54.234v1.781H18.449z M72.684,55.129v22.037H18.449V55.129H72.684z M6.46,12.096V4.512C6.46,3,7.148,2.733,8.595,2.733
		h3.56C13.6,2.733,14.29,3,14.29,4.512v7.584c0,1.511-0.688,1.775-2.136,1.775h-3.56C7.148,13.872,6.46,13.607,6.46,12.096z
		 M83.671,80.158v4.973c0,1.178-0.959,2.137-2.137,2.137H8.464c-1.178,0-2.136-0.959-2.136-2.137v-4.973
		c0-1.176,0.958-2.137,2.136-2.137h73.073C82.712,78.023,83.671,78.982,83.671,80.158z M83.562,12.096
		c0,1.511-0.677,1.775-2.101,1.775h-3.516c-1.424,0-2.101-0.265-2.101-1.775V4.512c0-1.513,0.677-1.779,2.101-1.779h3.516
		c1.424,0,2.101,0.267,2.101,1.779V12.096z"/>
	<path fill="#5DC3E7" d="M40.575,33.679l-0.449-8.682l5.165-3.817l6.888,1.423l1.345,6.213l-1.345,3.595l0.598,4.266l5.089,0.675
		l3.296,6.737l-1.796,4.689l-21.395-0.09l-2.86-5.349l1.197-4.791l4.266-1.049l2.544-2.521 M45.414,24.397l1.685,1.049l1.608,3.818
		l2.169,1.197l1.422-2.47L50.8,23.836l-5.239-1.386l-3.667,2.769L45.414,24.397z M48.139,38.996l4.16,1.872l5.692,3.815l2.095-0.898
		l-2.695-5.313l-4.418-0.449L48.139,38.996z"/>
</g>
</svg>
