<?xml version="1.0" encoding="utf-8"?>
<!-- Generator: Adobe Illustrator 16.0.4, SVG Export Plug-In . SVG Version: 6.00 Build 0)  -->
<!DOCTYPE svg PUBLIC "-//W3C//DTD SVG 1.1//EN" "http://www.w3.org/Graphics/SVG/1.1/DTD/svg11.dtd">
<svg version="1.1" id="Layer_1" xmlns="http://www.w3.org/2000/svg" xmlns:xlink="http://www.w3.org/1999/xlink" x="0px" y="0px"
	 width="86.999px" height="78px" viewBox="0 0 86.999 78" enable-background="new 0 0 86.999 78" xml:space="preserve">
<g id="Captions">
</g>
<g id="Your_Icon">
	<g>
		<path fill="#5CC3E7" d="M72.331,0H14.5c-0.039,0-0.328,0.123-0.367,0.124C5.819,0.23,0,6.754,0,16.244v56.5
			c0,2.761,2.488,5.121,5.249,5.122L71.374,78c0.001,0,0.063,0,0.063,0c1.326,0,2.379-0.648,3.312-1.586
			c0.94-0.938,1.25-2.332,1.25-3.658V62h6.5c2.763,0,4.5-1.994,4.5-4.756v-41C87,6.375,81.688,0,72.331,0z M66,67.755l-56-0.01
			V16.244c0-2.737,0.71-6,4.094-6c3.229,0,3.906,3.263,3.906,6v41C18,60.006,20.739,62,23.5,62H66V67.755z M77,52h-5.5H28V16.244
			C28,14.069,28.211,12,27.667,10h44.664C74.945,10,77,10.708,77,16.244V52z"/>
		<path fill="#5CC3E7" d="M65.5,35h-24c-2.761,0-5,2.238-5,5c0,2.762,2.239,5,5,5h24c2.762,0,5-2.238,5-5
			C70.5,37.238,68.262,35,65.5,35z"/>
		<path fill="#5CC3E7" d="M65.5,17h-24c-2.761,0-5,2.238-5,5s2.239,5,5,5h24c2.762,0,5-2.238,5-5S68.262,17,65.5,17z"/>
	</g>
</g>
</svg>
