<?xml version="1.0" encoding="utf-8"?>
<!-- Generator: Adobe Illustrator 16.0.4, SVG Export Plug-In . SVG Version: 6.00 Build 0)  -->
<!DOCTYPE svg PUBLIC "-//W3C//DTD SVG 1.1//EN" "http://www.w3.org/Graphics/SVG/1.1/DTD/svg11.dtd">
<svg version="1.1" id="Layer_1" xmlns="http://www.w3.org/2000/svg" xmlns:xlink="http://www.w3.org/1999/xlink" x="0px" y="0px"
	 width="97.088px" height="82.236px" viewBox="0 0 97.088 82.236" enable-background="new 0 0 97.088 82.236" xml:space="preserve">
<g id="Your_Icon">
	<path fill="#5EC3E7" d="M50.396,53.032c0,0,1.998,5.376,1.479,5.376s-3.656,4.668-3.656,4.668l4.177,6.564l6.955-2.765l3.308,2.765
		l0.521,6.051l8.172,1.211l2.439-5.355l3.646-0.874l5.564,3.117l6.089-4.147l-1.737-5.707l1.737-3.449l6.608-1.389l1.389-8.289
		l-6.084-2.763l-0.521-3.979l3.303-4.833l-4.864-7.006l-6.085,2.338l-3.479-2.338l-0.873-5.439l-7.998-1.031l-2.784,5.356
		l-3.825,1.114l-4.869-3.369l-6.438,3.369l1.893,5.793l-2.381,4.002l-5.943,0.988l-0.87,8.312L50.396,53.032z M71.182,40.146
		c6.475,0,11.74,5.002,11.74,11.178c0,6.18-5.268,11.178-11.74,11.178c-6.49,0-11.742-4.998-11.742-11.178
		C59.439,45.148,64.689,40.146,71.182,40.146z M38.666,76.305l4.691-5.432l-2.877-4.797l2.153-3.113l5.007-2.964l-1.461-6.412
		l-5.223-1.36l-1.479-3.287l2.086-5.084l-5.451-4.879l-4.306,2.613l-3.681-1.004l-1.976-5.562l-7.746,0.787l-1.416,5.129
		l-3.078,1.995l-5.526-2.558l-4.951,5.866L6.377,51.6l-1.378,3.235L0,57.016l0.709,6.633l5.459,1.986l1.555,3.022l-2.291,4.842
		l5.676,4.903l4.522-3.223l3.877,0.637l2.188,6.42l7.041-1.012c0,0,1.394-4.912,1.09-5.273c-0.311-0.358,3.968-1.917,3.968-1.917
		L38.666,76.305z M30.287,66.566c-4.302,3.646-10.895,3-14.729-1.455c-3.833-4.463-3.451-11.032,0.847-14.682
		c4.298-3.656,10.895-2.998,14.728,1.454C34.963,56.342,34.585,62.919,30.287,66.566z M58.559,14.5l-2.369-5.612l-4.767,0.354
		l-1.562-2.803l-0.366-4.908l-5.463-1.322l-3.016,3.428l-3.081-0.133L34.841,0l-5.802,2.268l0.37,4.243L27.24,8.904l-5.002-0.622
		L19.9,14.438l3.393,3.015l0.354,3.074l-4.038,3.207l2.598,5.959l5.219-0.188l1.952,2.267l-0.229,4.598l5.341,1.976l3.59-3.361
		l2.9-0.027l2.834,3.562l5.904-2.433l-0.748-4.624l1.952-2.688l5.738,0.775l1.894-5.688c0,0-3.224-2.92-3.612-2.826
		c-0.396,0.099,0.035-3.727,0.035-3.727L58.559,14.5z M47.932,17.129c1.166,4.629-1.834,9.359-6.695,10.564
		c-4.86,1.204-9.745-1.574-10.906-6.207c-1.165-4.633,1.838-9.352,6.699-10.563C41.89,9.718,46.774,12.497,47.932,17.129z"/>
</g>
</svg>
