<?xml version="1.0" encoding="utf-8"?>
<!-- Generator: Adobe Illustrator 16.0.4, SVG Export Plug-In . SVG Version: 6.00 Build 0)  -->
<!DOCTYPE svg PUBLIC "-//W3C//DTD SVG 1.1//EN" "http://www.w3.org/Graphics/SVG/1.1/DTD/svg11.dtd">
<svg version="1.1" id="Layer_1" xmlns="http://www.w3.org/2000/svg" xmlns:xlink="http://www.w3.org/1999/xlink" x="0px" y="0px"
	 width="52.921px" height="99.909px" viewBox="0 0 52.921 99.909" enable-background="new 0 0 52.921 99.909" xml:space="preserve">
<g id="Your_Icon">
	<path fill="#5EC3E7" d="M44.653,0H8.268C3.709,0,0,3.708,0,8.267v83.372c0,4.562,3.708,8.271,8.268,8.271h36.385
		c4.56,0,8.269-3.708,8.269-8.271V8.267C52.919,3.708,49.21,0,44.653,0z M21.844,2.277h9.234c0.403,0,0.732,0.328,0.732,0.734
		c0,0.405-0.329,0.734-0.732,0.734h-9.234c-0.406,0-0.734-0.329-0.734-0.734C21.11,2.605,21.438,2.277,21.844,2.277z M32.08,95.186
		c0,0.897-0.729,1.625-1.627,1.625h-7.985c-0.898,0-1.627-0.728-1.627-1.625v-0.758c0-0.898,0.729-1.626,1.627-1.626h7.985
		c0.898,0,1.627,0.728,1.627,1.626V95.186z M49.893,91.26H3.027V8.884h46.866V91.26z"/>
</g>
</svg>
